<svg version="1.1" id="Layer_1" xmlns="http://www.w3.org/2000/svg" xmlns:xlink="http://www.w3.org/1999/xlink" x="0px" y="0px" viewBox="0 0 168 168" style="enable-background:new 0 0 168 168;" xml:space="preserve">
<style type="text/css">
	.st0{fill:#808080;}
	.st1{fill:#333333;}
</style>
<g id="Layer_x0020_1">
	<polygon class="st0" points="60.1,69.4 53.3,69.4 53.3,76.3 60.1,76.3 	" id="id_101"></polygon>
	<path class="st0" d="M51.4,65.6H62c1.1,0,1.9,0.9,1.9,1.9v10.7c0,1.1-0.9,1.9-1.9,1.9H51.4c-1.1,0-1.9-0.9-1.9-1.9V67.5
		C49.4,66.5,50.3,65.6,51.4,65.6z" id="id_102"></path>
	<polygon class="st0" points="82.3,69.4 75.5,69.4 75.5,76.3 82.3,76.3 	" id="id_103"></polygon>
	<path class="st0" d="M73.6,65.6h10.7c1.1,0,1.9,0.9,1.9,1.9v10.7c0,1.1-0.9,1.9-1.9,1.9H73.6c-1.1,0-1.9-0.9-1.9-1.9V67.5
		C71.7,66.5,72.5,65.6,73.6,65.6z" id="id_104"></path>
	<polygon class="st0" points="104.6,69.4 97.7,69.4 97.7,76.3 104.6,76.3 	" id="id_105"></polygon>
	<path class="st0" d="M95.8,65.6h10.7c1.1,0,1.9,0.9,1.9,1.9v10.7c0,1.1-0.9,1.9-1.9,1.9H95.8c-1.1,0-1.9-0.9-1.9-1.9V67.5
		C93.9,66.5,94.8,65.6,95.8,65.6z" id="id_106"></path>
	<polygon class="st0" points="60.1,87.1 53.3,87.1 53.3,93.9 60.1,93.9 	" id="id_107"></polygon>
	<path class="st0" d="M51.4,83.2H62c1.1,0,1.9,0.9,1.9,1.9v10.7c0,1.1-0.9,1.9-1.9,1.9H51.4c-1.1,0-1.9-0.9-1.9-1.9V85.2
		C49.4,84.1,50.3,83.2,51.4,83.2z" id="id_108" style="fill: rgb(209, 12, 12);"></path>
	<polygon class="st0" points="82.3,87.1 75.5,87.1 75.5,93.9 82.3,93.9 	" id="id_109"></polygon>
	<path class="st0" d="M73.6,83.2h10.7c1.1,0,1.9,0.9,1.9,1.9v10.7c0,1.1-0.9,1.9-1.9,1.9H73.6c-1.1,0-1.9-0.9-1.9-1.9V85.2
		C71.7,84.1,72.5,83.2,73.6,83.2z" id="id_110"></path>
	<polygon class="st0" points="60.1,104.7 53.3,104.7 53.3,111.6 60.1,111.6 	" id="id_111"></polygon>
	<path class="st0" d="M51.4,100.9H62c1.1,0,1.9,0.9,1.9,1.9v10.7c0,1.1-0.9,1.9-1.9,1.9H51.4c-1.1,0-1.9-0.9-1.9-1.9v-10.7
		C49.4,101.8,50.3,100.9,51.4,100.9z" id="id_112" style="fill: rgb(209, 12, 12);"></path>
	<polygon class="st0" points="82.3,104.7 75.5,104.7 75.5,111.6 82.3,111.6 	" id="id_113"></polygon>
	<path class="st0" d="M73.6,100.9h10.7c1.1,0,1.9,0.9,1.9,1.9v10.7c0,1.1-0.9,1.9-1.9,1.9H73.6c-1.1,0-1.9-0.9-1.9-1.9v-10.7
		C71.7,101.8,72.5,100.9,73.6,100.9z" id="id_114"></path>
	<path class="st1" d="M126.6,87.6c8,0,15.2,3.2,20.4,8.5c5.2,5.2,8.5,12.4,8.5,20.4c0,8-3.2,15.2-8.5,20.4
		c-5.2,5.2-12.4,8.5-20.4,8.5s-15.2-3.2-20.4-8.5c-5.2-5.2-8.5-12.4-8.5-20.4c0-8,3.2-15.2,8.5-20.4
		C111.4,90.8,118.6,87.6,126.6,87.6z M144.3,98.8c-4.5-4.5-10.8-7.3-17.7-7.3c-6.9,0-13.2,2.8-17.7,7.3c-4.5,4.5-7.3,10.8-7.3,17.7
		c0,6.9,2.8,13.2,7.3,17.7c4.5,4.5,10.8,7.3,17.7,7.3c6.9,0,13.2-2.8,17.7-7.3c4.5-4.5,7.3-10.8,7.3-17.7
		C151.6,109.6,148.8,103.3,144.3,98.8z" id="id_115"></path>
	<path class="st1" d="M128.5,97.7c0-1.1-0.9-1.9-1.9-1.9c-1.1,0-1.9,0.9-1.9,1.9v16.5c0,1.1,0.9,1.9,1.9,1.9c1.1,0,1.9-0.9,1.9-1.9
		V97.7z M126,119.7c0.9-0.6,1.2-1.7,0.6-2.6s-1.7-1.2-2.6-0.6l-10.7,6.7c-0.9,0.6-1.2,1.7-0.6,2.6s1.7,1.2,2.6,0.6L126,119.7z" id="id_116"></path>
	<path class="st1" d="M128.5,89.5c0-1.1-0.9-1.9-1.9-1.9c-1.1,0-1.9,0.9-1.9,1.9v3c0,1.1,0.9,1.9,1.9,1.9c1.1,0,1.9-0.9,1.9-1.9
		V89.5z" id="id_117"></path>
	<path class="st1" d="M141.7,94.1c0.5-0.9,0.2-2.1-0.7-2.6c-0.9-0.5-2.1-0.2-2.6,0.7l-1.5,2.6c-0.5,0.9-0.2,2.1,0.7,2.6
		c0.9,0.5,2.1,0.2,2.6-0.7L141.7,94.1z" id="id_118"></path>
	<path class="st1" d="M150.9,104.6c0.9-0.5,1.2-1.7,0.7-2.6c-0.5-0.9-1.7-1.2-2.6-0.7l-2.6,1.5c-0.9,0.5-1.2,1.7-0.7,2.6
		c0.5,0.9,1.7,1.2,2.6,0.7L150.9,104.6z" id="id_119"></path>
	<path class="st1" d="M153.5,118.4c1.1,0,1.9-0.9,1.9-1.9s-0.9-1.9-1.9-1.9h-3c-1.1,0-1.9,0.9-1.9,1.9s0.9,1.9,1.9,1.9H153.5z" id="id_120"></path>
	<path class="st1" d="M149,131.6c0.9,0.5,2.1,0.2,2.6-0.7c0.5-0.9,0.2-2.1-0.7-2.6l-2.6-1.5c-0.9-0.5-2.1-0.2-2.6,0.7
		c-0.5,0.9-0.2,2.1,0.7,2.6L149,131.6z" id="id_121"></path>
	<path class="st1" d="M138.4,140.7c0.5,0.9,1.7,1.2,2.6,0.7c0.9-0.5,1.2-1.7,0.7-2.6l-1.5-2.6c-0.5-0.9-1.7-1.2-2.6-0.7
		s-1.2,1.7-0.7,2.6L138.4,140.7z" id="id_122"></path>
	<path class="st1" d="M124.7,143.4c0,1.1,0.9,1.9,1.9,1.9s1.9-0.9,1.9-1.9v-3c0-1.1-0.9-1.9-1.9-1.9s-1.9,0.9-1.9,1.9V143.4z" id="id_123"></path>
	<path class="st1" d="M111.5,138.8c-0.5,0.9-0.2,2.1,0.7,2.6c0.9,0.5,2.1,0.2,2.6-0.7l1.5-2.6c0.5-0.9,0.2-2.1-0.7-2.6
		c-0.9-0.5-2.1-0.2-2.6,0.7L111.5,138.8z" id="id_124"></path>
	<path class="st1" d="M102.3,128.3c-0.9,0.5-1.2,1.7-0.7,2.6c0.5,0.9,1.7,1.2,2.6,0.7l2.6-1.5c0.9-0.5,1.2-1.7,0.7-2.6
		c-0.5-0.9-1.7-1.2-2.6-0.7L102.3,128.3z" id="id_125"></path>
	<path class="st1" d="M99.7,114.5c-1.1,0-1.9,0.9-1.9,1.9c0,1.1,0.9,1.9,1.9,1.9h3c1.1,0,1.9-0.9,1.9-1.9c0-1.1-0.9-1.9-1.9-1.9
		H99.7z" id="id_126"></path>
	<path class="st1" d="M104.2,101.3c-0.9-0.5-2.1-0.2-2.6,0.7c-0.5,0.9-0.2,2.1,0.7,2.6l2.6,1.5c0.9,0.5,2.1,0.2,2.6-0.7
		s0.2-2.1-0.7-2.6L104.2,101.3z" id="id_127"></path>
	<path class="st1" d="M114.8,92.2c-0.5-0.9-1.7-1.2-2.6-0.7c-0.9,0.5-1.2,1.7-0.7,2.6l1.5,2.6c0.5,0.9,1.7,1.2,2.6,0.7
		c0.9-0.5,1.2-1.7,0.7-2.6L114.8,92.2z" id="id_128"></path>
	<path class="st1" d="M126.6,112.3c1.2,0,2.2,0.5,3,1.2c0.8,0.8,1.2,1.8,1.2,3c0,2.3-1.9,4.2-4.2,4.2c-1.2,0-2.2-0.5-3-1.2
		c-0.8-0.8-1.2-1.8-1.2-3c0-1.2,0.5-2.2,1.2-3C124.4,112.7,125.4,112.3,126.6,112.3z M126.9,116.2c-0.1-0.1-0.2-0.1-0.2-0.1
		s-0.2,0-0.2,0.1s-0.1,0.2-0.1,0.2c0,0.1,0,0.2,0.1,0.2c0.1,0.1,0.2,0.1,0.2,0.1c0.1,0,0.2,0,0.2-0.1l0,0l0,0
		c0.1-0.1,0.1-0.1,0.1-0.2C127,116.4,126.9,116.3,126.9,116.2z" id="id_129"></path>
	<path class="st1" d="M59,39.1c-1.1,0-1.9,0.9-1.9,1.9c0,1.1,0.9,1.9,1.9,1.9h15.8c1.1,0,1.9-0.9,1.9-1.9c0-1.1-0.9-1.9-1.9-1.9
		C74.7,39.1,59,39.1,59,39.1z M86.4,39.1c-1.1,0-1.9,0.9-1.9,1.9c0,1.1,0.9,1.9,1.9,1.9h15.8c1.1,0,1.9-0.9,1.9-1.9
		c0-1.1-0.9-1.9-1.9-1.9C102.1,39.1,86.4,39.1,86.4,39.1z M113.7,39.1c-1.1,0-1.9,0.9-1.9,1.9c0,1.1,0.9,1.9,1.9,1.9h10.9v46.6
		c0,1.1,0.9,1.9,1.9,1.9s1.9-0.9,1.9-1.9V41c0-1.1-0.9-1.9-1.9-1.9L113.7,39.1L113.7,39.1z M105.4,135c1.1,0,1.9-0.9,1.9-1.9
		s-0.9-1.9-1.9-1.9h-69V42.9h10.9c1.1,0,1.9-0.9,1.9-1.9c0-1.1-0.9-1.9-1.9-1.9H34.5c-1.1,0-1.9,0.9-1.9,1.9v92.1
		c0,1.1,0.9,1.9,1.9,1.9L105.4,135L105.4,135z" id="id_130"></path>
	<path class="st1" d="M60.9,36.9v8.3c0,10.2-15.5,10.2-15.5,0v-8.3C45.4,26.7,60.9,26.7,60.9,36.9z M49.3,36.9v8.3
		c0,5.1,7.8,5.1,7.8,0v-8.3C57.1,31.7,49.3,31.7,49.3,36.9z" id="id_131"></path>
	<path class="st1" d="M88.3,36.9v8.3c0,9.8-15.5,10.4-15.5,0v-8.3C72.8,26.7,88.3,26.7,88.3,36.9z M76.7,36.9v8.3
		c0,5.2,7.8,4.9,7.8,0v-8.3C84.4,31.7,76.7,31.7,76.7,36.9z" id="id_132"></path>
	<path class="st1" d="M115.7,36.9v8.3c0,10.4-15.5,9.8-15.5,0v-8.3C100.2,26.4,115.7,27.1,115.7,36.9z M104,36.9v8.3
		c0,4.9,7.8,5.3,7.8,0v-8.3C111.8,31.7,104,31.7,104,36.9z" id="id_133"></path>
	<path class="st1" d="M43.1,56.8h74.2c1.1,0,1.9,0.9,1.9,1.9v32.4c0,0.9-0.6,1.6-1.4,1.8c-4.8,1.8-8.9,5-11.7,9.1
		c-3.5,5-5.1,11.1-4.4,17.1c0.1,0.9,0.2,1.8,0.4,2.7l0,0c0.2,1-0.4,2.1-1.5,2.3c-0.1,0-0.3,0-0.4,0H43.1c-1.1,0-1.9-0.9-1.9-1.9
		V58.7C41.2,57.7,42.1,56.8,43.1,56.8L43.1,56.8z M115.4,60.7H45v59.7h53c0-0.3-0.1-0.5-0.1-0.8c-0.7-6.9,1-14,5.1-19.7
		c3.1-4.4,7.4-7.9,12.4-10C115.4,89.9,115.4,60.7,115.4,60.7z" id="id_134"></path>
</g>
</svg>