<?xml version="1.0" encoding="UTF-8"?>
<svg xmlns="http://www.w3.org/2000/svg" xmlns:xlink="http://www.w3.org/1999/xlink" width="300px" height="58px" viewBox="0 0 298 58" version="1.1">
<g id="surface1">
<path style=" stroke:none;fill-rule:nonzero;fill:rgb(99.607843%,99.607843%,99.607843%);fill-opacity:1;" d="M 0 0 C 98.339844 0 196.679688 0 298 0 C 298 19.140625 298 38.28125 298 58 C 199.660156 58 101.320312 58 0 58 C 0 38.859375 0 19.71875 0 0 Z M 0 0 "/>
<path style=" stroke:none;fill-rule:nonzero;fill:rgb(1.176471%,1.176471%,1.176471%);fill-opacity:1;" d="M 42.195312 14.425781 C 42.484375 14.570312 42.773438 14.714844 43.070312 14.863281 C 43.070312 14.960938 43.070312 15.058594 43.070312 15.15625 C 43.164062 15.195312 43.257812 15.234375 43.351562 15.273438 C 43.652344 15.445312 43.652344 15.445312 43.796875 15.882812 C 43.894531 15.882812 43.988281 15.882812 44.089844 15.882812 C 44.285156 16.121094 44.464844 16.371094 44.644531 16.621094 C 44.746094 16.769531 44.851562 16.914062 44.957031 17.066406 C 45.054688 17.207031 45.152344 17.34375 45.253906 17.488281 C 45.386719 17.667969 45.519531 17.847656 45.652344 18.023438 C 45.886719 18.355469 46.078125 18.6875 46.257812 19.054688 C 46.445312 19.441406 46.640625 19.824219 46.839844 20.203125 C 47.582031 21.644531 48.183594 23.109375 48.746094 24.628906 C 48.820312 24.828125 48.894531 25.03125 48.972656 25.230469 C 49.152344 25.710938 49.332031 26.191406 49.511719 26.671875 C 49.691406 27.15625 49.875 27.640625 50.054688 28.125 C 50.273438 28.703125 50.488281 29.285156 50.703125 29.863281 C 51.085938 30.890625 51.476562 31.914062 51.875 32.933594 C 52.425781 34.351562 52.960938 35.769531 53.480469 37.195312 C 54.144531 39.003906 54.832031 40.804688 55.527344 42.601562 C 56.421875 44.917969 56.421875 44.917969 56.816406 46.042969 C 57.105469 46.863281 57.417969 47.675781 57.738281 48.488281 C 57.835938 48.734375 57.933594 48.984375 58.03125 49.234375 C 58.183594 49.617188 58.332031 50 58.484375 50.382812 C 58.636719 50.757812 58.78125 51.132812 58.929688 51.511719 C 59 51.683594 59 51.683594 59.070312 51.855469 C 59.300781 52.453125 59.441406 52.851562 59.222656 53.480469 C 56.53125 53.539062 54.191406 53.34375 52.09375 51.441406 C 51.734375 51.066406 51.402344 50.675781 51.074219 50.277344 C 50.949219 50.144531 50.828125 50.011719 50.699219 49.875 C 50.273438 49.355469 50.003906 48.761719 49.714844 48.160156 C 49.542969 47.800781 49.367188 47.441406 49.183594 47.089844 C 48.664062 46.074219 48.1875 45.066406 47.792969 43.996094 C 47.507812 43.21875 47.191406 42.449219 46.878906 41.679688 C 46.375 40.417969 45.882812 39.152344 45.402344 37.878906 C 45.035156 36.90625 44.652344 35.941406 44.261719 34.976562 C 43.636719 33.425781 43.039062 31.863281 42.453125 30.300781 C 42.085938 29.328125 41.714844 28.359375 41.324219 27.398438 C 41.046875 26.707031 40.769531 26.019531 40.496094 25.328125 C 40.460938 25.238281 40.425781 25.148438 40.386719 25.058594 C 40.277344 24.789062 40.171875 24.523438 40.066406 24.257812 C 39.972656 24.023438 39.972656 24.023438 39.878906 23.785156 C 39.609375 22.976562 39.5 22.335938 39.792969 21.523438 C 39.84375 21.386719 39.890625 21.246094 39.941406 21.105469 C 39.996094 20.960938 40.050781 20.816406 40.105469 20.667969 C 40.160156 20.515625 40.214844 20.367188 40.269531 20.210938 C 40.535156 19.476562 40.816406 18.75 41.132812 18.035156 C 41.636719 16.882812 41.898438 15.644531 42.195312 14.425781 Z M 42.195312 14.425781 "/>
<path style=" stroke:none;fill-rule:nonzero;fill:rgb(0.784314%,0.784314%,0.784314%);fill-opacity:1;" d="M 22.554688 14.425781 C 22.597656 14.585938 22.636719 14.75 22.683594 14.914062 C 23.074219 16.371094 23.523438 17.792969 24.039062 19.210938 C 24.160156 19.546875 24.28125 19.886719 24.398438 20.226562 C 24.4375 20.34375 24.476562 20.457031 24.519531 20.574219 C 24.597656 20.796875 24.671875 21.015625 24.75 21.238281 C 24.894531 21.734375 24.894531 21.734375 25.171875 22.152344 C 25.230469 22.863281 25.078125 23.351562 24.804688 24.003906 C 24.722656 24.199219 24.644531 24.394531 24.5625 24.585938 C 24.519531 24.6875 24.476562 24.789062 24.433594 24.894531 C 24.207031 25.433594 23.988281 25.980469 23.769531 26.523438 C 23.675781 26.75 23.582031 26.976562 23.488281 27.207031 C 23.445312 27.320312 23.398438 27.433594 23.347656 27.550781 C 23.253906 27.78125 23.160156 28.011719 23.066406 28.242188 C 22.503906 29.628906 21.953125 31.019531 21.433594 32.421875 C 21.179688 33.105469 20.90625 33.78125 20.636719 34.460938 C 20.289062 35.328125 19.949219 36.199219 19.605469 37.070312 C 19.015625 38.578125 18.417969 40.085938 17.8125 41.589844 C 17.476562 42.429688 17.152344 43.269531 16.84375 44.121094 C 16.46875 45.128906 16.039062 46.101562 15.570312 47.070312 C 15.480469 47.261719 15.390625 47.457031 15.300781 47.648438 C 14.269531 49.847656 12.851562 51.683594 10.621094 52.753906 C 9.949219 52.984375 9.273438 53.167969 8.585938 53.335938 C 8.445312 53.375 8.445312 53.375 8.304688 53.414062 C 7.992188 53.484375 7.722656 53.5 7.40625 53.496094 C 7.296875 53.496094 7.183594 53.496094 7.074219 53.496094 C 6.960938 53.492188 6.847656 53.492188 6.730469 53.492188 C 6.613281 53.492188 6.5 53.488281 6.378906 53.488281 C 6.097656 53.488281 5.8125 53.484375 5.53125 53.480469 C 5.351562 52.867188 5.417969 52.542969 5.664062 51.960938 C 6.089844 50.921875 6.472656 49.871094 6.847656 48.8125 C 7.070312 48.195312 7.296875 47.589844 7.570312 46.992188 C 7.882812 46.304688 8.125 45.597656 8.367188 44.882812 C 8.652344 44.039062 8.957031 43.222656 9.324219 42.414062 C 9.503906 42.011719 9.652344 41.601562 9.792969 41.1875 C 10.871094 38.121094 12 35.0625 13.222656 32.050781 C 13.628906 31.050781 13.984375 30.03125 14.335938 29.007812 C 14.628906 28.167969 14.9375 27.34375 15.277344 26.523438 C 15.417969 26.175781 15.558594 25.832031 15.695312 25.484375 C 15.734375 25.390625 15.773438 25.296875 15.808594 25.203125 C 16 24.730469 16.179688 24.261719 16.351562 23.785156 C 17.136719 21.585938 18.042969 19.332031 19.5 17.488281 C 19.5625 17.394531 19.625 17.304688 19.6875 17.210938 C 20.175781 16.507812 20.753906 15.90625 21.351562 15.300781 C 21.4375 15.214844 21.523438 15.128906 21.609375 15.042969 C 22.226562 14.425781 22.226562 14.425781 22.554688 14.425781 Z M 22.554688 14.425781 "/>
<path style=" stroke:none;fill-rule:nonzero;fill:rgb(0.784314%,0.784314%,0.784314%);fill-opacity:1;" d="M 32.011719 4.808594 C 32.601562 5.027344 32.894531 5.222656 33.292969 5.710938 C 33.765625 6.265625 34.261719 6.738281 34.816406 7.207031 C 35.136719 7.492188 35.382812 7.824219 35.648438 8.160156 C 35.835938 8.328125 36.023438 8.492188 36.214844 8.652344 C 36.757812 9.121094 37.273438 9.609375 37.6875 10.199219 C 37.6875 10.296875 37.6875 10.394531 37.6875 10.492188 C 37.78125 10.492188 37.878906 10.492188 37.976562 10.492188 C 39.242188 12.734375 39.375 14.734375 38.703125 17.195312 C 38.488281 17.792969 38.234375 18.367188 37.976562 18.945312 C 37.832031 19.304688 37.683594 19.667969 37.539062 20.027344 C 37.503906 20.121094 37.46875 20.214844 37.429688 20.308594 C 37.132812 21.050781 36.847656 21.796875 36.5625 22.542969 C 36.328125 23.152344 36.082031 23.757812 35.839844 24.363281 C 35.566406 25.042969 35.3125 25.726562 35.058594 26.414062 C 34.769531 27.199219 34.445312 27.960938 34.089844 28.71875 C 33.855469 29.253906 33.65625 29.792969 33.457031 30.339844 C 33.167969 31.136719 32.851562 31.898438 32.449219 32.644531 C 32.351562 32.644531 32.257812 32.644531 32.15625 32.644531 C 31.949219 32.140625 31.746094 31.636719 31.539062 31.132812 C 31.453125 30.921875 31.453125 30.921875 31.363281 30.703125 C 30.992188 29.796875 30.628906 28.890625 30.265625 27.980469 C 30.175781 27.753906 30.085938 27.527344 29.996094 27.300781 C 29.40625 25.828125 29.40625 25.828125 28.820312 24.355469 C 28.773438 24.242188 28.726562 24.125 28.679688 24.007812 C 28.582031 23.769531 28.488281 23.53125 28.394531 23.296875 C 28.121094 22.613281 27.847656 21.929688 27.570312 21.25 C 24.90625 14.675781 24.90625 14.675781 25.898438 11.804688 C 26.730469 9.898438 28.140625 8.582031 29.609375 7.160156 C 29.84375 6.929688 30.078125 6.699219 30.308594 6.46875 C 30.875 5.914062 31.441406 5.359375 32.011719 4.808594 Z M 32.011719 4.808594 "/>
<path style=" stroke:none;fill-rule:nonzero;fill:rgb(1.568627%,1.568627%,1.568627%);fill-opacity:1;" d="M 37.6875 26.960938 C 38.203125 27.171875 38.257812 27.230469 38.515625 27.773438 C 38.601562 28.003906 38.683594 28.230469 38.761719 28.460938 C 38.808594 28.585938 38.855469 28.707031 38.898438 28.835938 C 39.050781 29.246094 39.195312 29.65625 39.339844 30.066406 C 39.445312 30.351562 39.550781 30.636719 39.652344 30.921875 C 39.867188 31.503906 40.078125 32.089844 40.289062 32.671875 C 40.6875 33.773438 41.101562 34.871094 41.519531 35.96875 C 41.640625 36.292969 41.765625 36.621094 41.890625 36.949219 C 42.316406 38.078125 42.746094 39.207031 43.179688 40.335938 C 43.269531 40.566406 43.359375 40.800781 43.449219 41.03125 C 43.617188 41.472656 43.785156 41.914062 43.957031 42.351562 C 44.03125 42.546875 44.109375 42.746094 44.183594 42.941406 C 44.25 43.113281 44.316406 43.285156 44.382812 43.460938 C 44.523438 43.863281 44.523438 43.863281 44.523438 44.15625 C 43.132812 44.800781 41.421875 44.488281 40.015625 44.011719 C 39.59375 43.835938 39.1875 43.644531 38.777344 43.445312 C 38.679688 43.398438 38.582031 43.351562 38.480469 43.300781 C 37.871094 42.984375 37.425781 42.632812 36.960938 42.117188 C 36.863281 42.015625 36.765625 41.914062 36.664062 41.808594 C 35.960938 41.042969 35.425781 40.253906 34.921875 39.347656 C 34.839844 39.214844 34.761719 39.082031 34.679688 38.945312 C 33.761719 37.378906 33.761719 37.378906 33.902344 36.433594 C 34.082031 35.957031 34.296875 35.511719 34.523438 35.058594 C 34.78125 34.527344 34.996094 33.988281 35.195312 33.4375 C 35.523438 32.535156 35.871094 31.640625 36.230469 30.75 C 36.738281 29.492188 37.21875 28.230469 37.6875 26.960938 Z M 37.6875 26.960938 "/>
<path style=" stroke:none;fill-rule:nonzero;fill:rgb(1.176471%,1.176471%,1.176471%);fill-opacity:1;" d="M 26.628906 26.960938 C 27.0625 27.105469 27.0625 27.105469 27.214844 27.378906 C 27.261719 27.5 27.308594 27.621094 27.355469 27.742188 C 27.40625 27.878906 27.457031 28.015625 27.511719 28.15625 C 27.570312 28.304688 27.625 28.453125 27.679688 28.605469 C 27.738281 28.757812 27.796875 28.910156 27.859375 29.070312 C 28.046875 29.5625 28.234375 30.054688 28.417969 30.546875 C 28.605469 31.03125 28.789062 31.519531 28.972656 32.003906 C 29.09375 32.316406 29.214844 32.632812 29.332031 32.945312 C 29.582031 33.609375 29.835938 34.269531 30.117188 34.917969 C 30.613281 36.0625 30.894531 36.859375 30.441406 38.050781 C 30.296875 38.363281 30.140625 38.664062 29.976562 38.964844 C 29.917969 39.070312 29.859375 39.179688 29.796875 39.289062 C 29.058594 40.609375 28.140625 41.789062 26.917969 42.699219 C 26.824219 42.769531 26.734375 42.84375 26.636719 42.917969 C 25.175781 43.984375 23.445312 44.46875 21.652344 44.464844 C 21.476562 44.464844 21.300781 44.464844 21.121094 44.464844 C 20.664062 44.445312 20.664062 44.445312 20.226562 44.300781 C 20.277344 43.402344 20.527344 42.714844 20.886719 41.890625 C 21.125 41.324219 21.328125 40.75 21.527344 40.167969 C 21.792969 39.394531 22.078125 38.644531 22.40625 37.898438 C 22.738281 37.148438 23.011719 36.394531 23.261719 35.613281 C 23.609375 34.542969 24.003906 33.503906 24.429688 32.464844 C 24.863281 31.394531 25.257812 30.308594 25.640625 29.21875 C 25.917969 28.433594 26.238281 27.699219 26.628906 26.960938 Z M 26.628906 26.960938 "/>
<path style=" stroke:none;fill-rule:nonzero;fill:rgb(1.568627%,1.568627%,1.568627%);fill-opacity:1;" d="M 239.214844 23.753906 C 240.128906 23.753906 241.039062 23.753906 241.980469 23.753906 C 242.222656 24.609375 242.445312 25.460938 242.652344 26.320312 C 242.6875 26.457031 242.71875 26.59375 242.753906 26.730469 C 242.785156 26.863281 242.816406 26.996094 242.847656 27.128906 C 242.878906 27.246094 242.90625 27.367188 242.9375 27.488281 C 243 27.851562 243.007812 28.191406 243 28.5625 C 243.09375 28.5625 243.191406 28.5625 243.289062 28.5625 C 243.320312 28.390625 243.355469 28.21875 243.390625 28.042969 C 243.613281 27.027344 243.96875 26.050781 244.308594 25.066406 C 244.394531 24.800781 244.484375 24.539062 244.570312 24.273438 C 244.628906 24.101562 244.683594 23.929688 244.742188 23.753906 C 245.609375 23.753906 246.472656 23.753906 247.363281 23.753906 C 247.855469 25.066406 247.855469 25.066406 247.996094 25.609375 C 248.027344 25.726562 248.058594 25.84375 248.089844 25.964844 C 248.121094 26.082031 248.152344 26.199219 248.183594 26.320312 C 248.214844 26.441406 248.246094 26.5625 248.277344 26.683594 C 248.4375 27.308594 248.578125 27.925781 248.671875 28.5625 C 248.769531 28.5625 248.863281 28.5625 248.964844 28.5625 C 248.980469 28.398438 248.996094 28.234375 249.015625 28.0625 C 249.101562 27.378906 249.273438 26.734375 249.464844 26.078125 C 249.496094 25.964844 249.527344 25.855469 249.558594 25.738281 C 249.621094 25.53125 249.679688 25.320312 249.738281 25.113281 C 249.871094 24.660156 250 24.207031 250.128906 23.753906 C 251.039062 23.753906 251.953125 23.753906 252.890625 23.753906 C 252.582031 25.320312 252.234375 26.851562 251.78125 28.382812 C 251.433594 29.566406 251.136719 30.765625 250.855469 31.964844 C 250.820312 32.109375 250.789062 32.25 250.753906 32.394531 C 250.722656 32.519531 250.695312 32.644531 250.664062 32.773438 C 250.5625 33.082031 250.5625 33.082031 250.273438 33.371094 C 249.859375 33.410156 249.460938 33.425781 249.046875 33.425781 C 248.933594 33.429688 248.820312 33.433594 248.703125 33.4375 C 247.886719 33.441406 247.886719 33.441406 247.527344 33.15625 C 247.292969 32.628906 247.140625 32.097656 247 31.542969 C 246.96875 31.425781 246.9375 31.308594 246.90625 31.1875 C 246.84375 30.953125 246.78125 30.71875 246.722656 30.488281 C 246.578125 29.949219 246.421875 29.414062 246.269531 28.878906 C 246.199219 28.5625 246.199219 28.5625 246.199219 27.980469 C 246.101562 27.980469 246.007812 27.980469 245.90625 27.980469 C 245.878906 28.199219 245.878906 28.199219 245.851562 28.425781 C 245.765625 28.972656 245.644531 29.484375 245.5 30.019531 C 245.472656 30.109375 245.449219 30.203125 245.421875 30.296875 C 245.371094 30.488281 245.316406 30.683594 245.261719 30.875 C 245.179688 31.167969 245.097656 31.464844 245.019531 31.761719 C 244.964844 31.949219 244.914062 32.136719 244.863281 32.324219 C 244.816406 32.492188 244.769531 32.664062 244.71875 32.835938 C 244.597656 33.226562 244.597656 33.226562 244.453125 33.371094 C 244.257812 33.382812 244.0625 33.386719 243.867188 33.386719 C 243.75 33.386719 243.628906 33.386719 243.507812 33.382812 C 243.386719 33.382812 243.261719 33.382812 243.132812 33.382812 C 243.011719 33.378906 242.886719 33.378906 242.757812 33.378906 C 242.449219 33.378906 242.140625 33.375 241.835938 33.371094 C 241.5 32.703125 241.230469 32.042969 241.058594 31.3125 C 240.871094 30.527344 240.667969 29.746094 240.460938 28.964844 C 240.394531 28.722656 240.332031 28.480469 240.265625 28.238281 C 240.167969 27.867188 240.070312 27.492188 239.96875 27.121094 C 239.871094 26.753906 239.773438 26.390625 239.675781 26.023438 C 239.648438 25.914062 239.617188 25.800781 239.585938 25.6875 C 239.558594 25.582031 239.53125 25.480469 239.503906 25.371094 C 239.480469 25.28125 239.457031 25.1875 239.429688 25.09375 C 239.332031 24.652344 239.277344 24.203125 239.214844 23.753906 Z M 239.214844 23.753906 "/>
<path style=" stroke:none;fill-rule:nonzero;fill:rgb(0.784314%,0.784314%,0.784314%);fill-opacity:1;" d="M 115.824219 23.753906 C 117 23.730469 117 23.730469 118.199219 23.707031 C 118.441406 23.703125 118.683594 23.695312 118.9375 23.6875 C 120.496094 23.664062 121.734375 23.871094 122.9375 24.957031 C 123.09375 25.132812 123.242188 25.316406 123.390625 25.503906 C 123.464844 25.585938 123.539062 25.671875 123.613281 25.757812 C 124.417969 26.871094 124.257812 28.425781 124.117188 29.730469 C 123.894531 30.824219 123.300781 31.578125 122.515625 32.351562 C 122.445312 32.425781 122.375 32.5 122.304688 32.574219 C 120.785156 34.027344 117.296875 33.371094 115.824219 33.371094 C 115.824219 30.199219 115.824219 27.023438 115.824219 23.753906 Z M 115.824219 23.753906 "/>
<path style=" stroke:none;fill-rule:nonzero;fill:rgb(1.176471%,1.176471%,1.176471%);fill-opacity:1;" d="M 97.492188 23.753906 C 102.953125 23.753906 102.953125 23.753906 104.125 24.613281 C 105.296875 25.871094 105.875 27.109375 105.828125 28.855469 C 105.667969 30.4375 105.105469 31.605469 103.890625 32.644531 C 101.949219 33.929688 99.875 33.371094 97.492188 33.371094 C 97.492188 30.199219 97.492188 27.023438 97.492188 23.753906 Z M 97.492188 23.753906 "/>
<path style=" stroke:none;fill-rule:nonzero;fill:rgb(0.784314%,0.784314%,0.784314%);fill-opacity:1;" d="M 164.277344 23.753906 C 165.574219 23.726562 165.574219 23.726562 166.898438 23.699219 C 167.167969 23.691406 167.4375 23.683594 167.71875 23.675781 C 169.84375 23.636719 169.84375 23.636719 170.632812 24.402344 C 170.699219 24.476562 170.761719 24.550781 170.828125 24.628906 C 170.941406 24.757812 171.058594 24.886719 171.179688 25.019531 C 171.628906 25.6875 171.609375 26.328125 171.554688 27.105469 C 171.414062 27.628906 171.214844 28.082031 170.972656 28.5625 C 171.035156 28.613281 171.097656 28.667969 171.164062 28.71875 C 171.753906 29.285156 171.914062 29.714844 171.9375 30.539062 C 171.898438 31.304688 171.796875 31.773438 171.261719 32.351562 C 171.148438 32.484375 171.035156 32.617188 170.917969 32.753906 C 170.152344 33.40625 169.355469 33.414062 168.398438 33.398438 C 168.292969 33.398438 168.1875 33.398438 168.082031 33.398438 C 167.691406 33.398438 167.304688 33.394531 166.914062 33.390625 C 165.609375 33.382812 165.609375 33.382812 164.277344 33.371094 C 164.277344 30.199219 164.277344 27.023438 164.277344 23.753906 Z M 164.277344 23.753906 "/>
<path style=" stroke:none;fill-rule:nonzero;fill:rgb(0.784314%,0.784314%,0.784314%);fill-opacity:1;" d="M 74.9375 23.753906 C 75.800781 23.738281 76.664062 23.722656 77.554688 23.707031 C 77.824219 23.703125 78.097656 23.695312 78.375 23.6875 C 78.59375 23.6875 78.8125 23.683594 79.027344 23.683594 C 79.140625 23.679688 79.25 23.675781 79.363281 23.671875 C 80.234375 23.671875 80.808594 23.9375 81.484375 24.480469 C 82.050781 25.128906 82.160156 25.675781 82.140625 26.511719 C 82.136719 26.617188 82.136719 26.71875 82.136719 26.824219 C 82.109375 27.613281 81.972656 28.097656 81.484375 28.707031 C 81.597656 28.746094 81.710938 28.785156 81.828125 28.828125 C 82.210938 29 82.210938 29 82.503906 29.4375 C 82.625 30.273438 82.683594 31.117188 82.296875 31.886719 C 81.789062 32.546875 81.265625 33.105469 80.464844 33.371094 C 80.046875 33.382812 79.632812 33.390625 79.214844 33.386719 C 79.105469 33.386719 78.996094 33.386719 78.886719 33.386719 C 78.480469 33.386719 78.078125 33.382812 77.675781 33.382812 C 76.320312 33.375 76.320312 33.375 74.9375 33.371094 C 74.9375 30.199219 74.9375 27.023438 74.9375 23.753906 Z M 74.9375 23.753906 "/>
<path style=" stroke:none;fill-rule:nonzero;fill:rgb(1.176471%,1.176471%,1.176471%);fill-opacity:1;" d="M 228.445312 23.898438 C 228.617188 23.984375 228.617188 23.984375 228.789062 24.074219 C 229.246094 24.332031 229.546875 24.523438 229.820312 24.972656 C 229.710938 25.628906 229.246094 25.984375 228.738281 26.375 C 228.285156 26.621094 228.285156 26.621094 227.867188 26.667969 C 227.472656 26.402344 227.472656 26.402344 227.136719 26.085938 C 226.296875 25.804688 225.414062 25.804688 224.601562 26.160156 C 223.859375 26.882812 223.613281 27.539062 223.582031 28.582031 C 223.601562 29.261719 223.714844 29.726562 224.082031 30.3125 C 224.082031 30.40625 224.082031 30.503906 224.082031 30.601562 C 224.835938 31.027344 225.691406 31.3125 226.554688 31.1875 C 226.925781 30.96875 227.238281 30.726562 227.574219 30.457031 C 226.996094 30.410156 226.421875 30.359375 225.828125 30.3125 C 225.828125 29.636719 225.828125 28.964844 225.828125 28.269531 C 226.417969 28.152344 226.886719 28.105469 227.480469 28.105469 C 227.65625 28.105469 227.828125 28.105469 228.007812 28.105469 C 228.191406 28.105469 228.371094 28.105469 228.554688 28.105469 C 228.738281 28.105469 228.921875 28.105469 229.109375 28.105469 C 229.285156 28.105469 229.457031 28.105469 229.636719 28.105469 C 229.875 28.105469 229.875 28.105469 230.117188 28.105469 C 230.484375 28.125 230.484375 28.125 230.628906 28.269531 C 230.644531 28.648438 230.648438 29.023438 230.644531 29.402344 C 230.644531 29.515625 230.644531 29.628906 230.644531 29.742188 C 230.644531 30.105469 230.640625 30.46875 230.640625 30.832031 C 230.636719 31.074219 230.636719 31.320312 230.636719 31.566406 C 230.636719 32.167969 230.632812 32.769531 230.628906 33.371094 C 230.542969 33.375 230.457031 33.378906 230.363281 33.382812 C 229.972656 33.398438 229.578125 33.417969 229.183594 33.4375 C 229.046875 33.441406 228.910156 33.445312 228.765625 33.453125 C 228.636719 33.460938 228.503906 33.464844 228.371094 33.472656 C 228.25 33.476562 228.128906 33.480469 228.003906 33.488281 C 227.71875 33.488281 227.71875 33.488281 227.574219 33.664062 C 225.988281 33.824219 224.210938 33.941406 222.816406 33.074219 C 222.21875 32.566406 221.824219 32.023438 221.460938 31.332031 C 221.398438 31.214844 221.335938 31.09375 221.273438 30.972656 C 220.699219 29.679688 220.652344 28.058594 220.980469 26.6875 C 221.117188 26.359375 221.265625 26.085938 221.460938 25.792969 C 221.527344 25.691406 221.589844 25.59375 221.65625 25.488281 C 222.324219 24.503906 223.308594 23.628906 224.492188 23.375 C 225.921875 23.195312 227.160156 23.214844 228.445312 23.898438 Z M 228.445312 23.898438 "/>
<path style=" stroke:none;fill-rule:nonzero;fill:rgb(0.784314%,0.784314%,0.784314%);fill-opacity:1;" d="M 209.386719 23.753906 C 210.25 23.753906 211.113281 23.753906 212.003906 23.753906 C 212.828125 24.75 212.828125 24.75 213.027344 25.203125 C 213.316406 25.816406 213.671875 26.367188 214.042969 26.933594 C 214.152344 27.101562 214.261719 27.273438 214.371094 27.445312 C 214.589844 27.808594 214.589844 27.808594 214.769531 27.980469 C 214.773438 27.804688 214.773438 27.804688 214.78125 27.625 C 214.796875 27.09375 214.816406 26.5625 214.832031 26.03125 C 214.839844 25.84375 214.84375 25.660156 214.851562 25.46875 C 214.859375 25.203125 214.859375 25.203125 214.867188 24.933594 C 214.875 24.769531 214.878906 24.609375 214.886719 24.441406 C 214.914062 24.046875 214.914062 24.046875 215.0625 23.753906 C 215.828125 23.753906 216.597656 23.753906 217.390625 23.753906 C 217.410156 24.65625 217.429688 25.5625 217.449219 26.464844 C 217.457031 26.773438 217.464844 27.078125 217.472656 27.382812 C 217.507812 28.941406 217.542969 30.496094 217.546875 32.054688 C 217.546875 32.171875 217.550781 32.289062 217.550781 32.40625 C 217.550781 32.679688 217.542969 32.953125 217.535156 33.226562 C 217.390625 33.371094 217.390625 33.371094 216.898438 33.386719 C 216.695312 33.386719 216.492188 33.382812 216.289062 33.382812 C 216.132812 33.378906 216.132812 33.378906 215.976562 33.378906 C 215.71875 33.378906 215.460938 33.375 215.207031 33.371094 C 215.109375 33.132812 215.015625 32.890625 214.914062 32.644531 C 214.820312 32.644531 214.722656 32.644531 214.625 32.644531 C 214.4375 32.375 214.261719 32.097656 214.097656 31.8125 C 213.992188 31.640625 213.890625 31.46875 213.785156 31.292969 C 213.730469 31.203125 213.679688 31.113281 213.625 31.023438 C 213.359375 30.582031 213.09375 30.148438 212.824219 29.710938 C 212.730469 29.558594 212.636719 29.402344 212.539062 29.246094 C 212.363281 28.964844 212.1875 28.691406 212.003906 28.417969 C 212 28.5625 211.996094 28.707031 211.992188 28.855469 C 211.980469 29.390625 211.964844 29.929688 211.949219 30.464844 C 211.945312 30.695312 211.9375 30.929688 211.933594 31.160156 C 211.925781 31.492188 211.914062 31.828125 211.90625 32.160156 C 211.902344 32.316406 211.902344 32.316406 211.898438 32.476562 C 211.875 33.210938 211.875 33.210938 211.714844 33.371094 C 210.945312 33.371094 210.175781 33.371094 209.386719 33.371094 C 209.386719 30.199219 209.386719 27.023438 209.386719 23.753906 Z M 209.386719 23.753906 "/>
<path style=" stroke:none;fill-rule:nonzero;fill:rgb(0.784314%,0.784314%,0.784314%);fill-opacity:1;" d="M 186.832031 23.753906 C 187.648438 23.738281 188.464844 23.722656 189.304688 23.707031 C 189.6875 23.699219 189.6875 23.699219 190.078125 23.6875 C 192.105469 23.65625 192.105469 23.65625 192.890625 24.285156 C 193.148438 24.542969 193.382812 24.789062 193.589844 25.09375 C 193.65625 25.191406 193.726562 25.289062 193.796875 25.390625 C 194.3125 26.199219 194.210938 27.199219 194.109375 28.125 C 193.785156 28.847656 193.28125 29.273438 192.652344 29.730469 C 192.738281 29.859375 192.824219 29.992188 192.914062 30.128906 C 194.6875 32.867188 194.6875 32.867188 194.6875 33.371094 C 192.367188 33.59375 192.367188 33.59375 191.695312 33.09375 C 191.433594 32.710938 191.238281 32.339844 191.050781 31.914062 C 190.933594 31.671875 190.8125 31.425781 190.6875 31.1875 C 190.640625 31.082031 190.59375 30.976562 190.546875 30.867188 C 190.265625 30.484375 190.265625 30.484375 189.304688 30.3125 C 189.304688 31.320312 189.304688 32.332031 189.304688 33.371094 C 188.488281 33.371094 187.671875 33.371094 186.832031 33.371094 C 186.832031 30.199219 186.832031 27.023438 186.832031 23.753906 Z M 186.832031 23.753906 "/>
<path style=" stroke:none;fill-rule:nonzero;fill:rgb(1.568627%,1.568627%,1.568627%);fill-opacity:1;" d="M 85.851562 23.753906 C 86.664062 23.753906 87.480469 23.753906 88.324219 23.753906 C 88.449219 25.328125 88.511719 26.894531 88.550781 28.472656 C 88.558594 28.707031 88.5625 28.945312 88.570312 29.179688 C 88.585938 29.753906 88.601562 30.324219 88.613281 30.894531 C 89.183594 31.136719 89.589844 31.265625 90.214844 31.1875 C 90.652344 30.863281 90.78125 30.6875 90.875 30.144531 C 90.875 29.964844 90.878906 29.785156 90.878906 29.601562 C 90.882812 29.457031 90.882812 29.457031 90.886719 29.308594 C 90.894531 28.996094 90.894531 28.683594 90.898438 28.371094 C 90.902344 27.964844 90.910156 27.558594 90.917969 27.152344 C 90.917969 27.054688 90.917969 26.953125 90.921875 26.851562 C 90.9375 25.816406 91.011719 24.785156 91.085938 23.753906 C 91.902344 23.753906 92.71875 23.753906 93.5625 23.753906 C 93.574219 24.773438 93.582031 25.792969 93.585938 26.8125 C 93.585938 27.15625 93.589844 27.503906 93.59375 27.851562 C 93.601562 28.347656 93.601562 28.847656 93.605469 29.347656 C 93.605469 29.5 93.609375 29.65625 93.609375 29.8125 C 93.609375 30.972656 93.429688 31.789062 92.644531 32.679688 C 92.5625 32.773438 92.480469 32.867188 92.398438 32.964844 C 91.554688 33.71875 90.730469 33.738281 89.652344 33.734375 C 89.511719 33.742188 89.371094 33.746094 89.230469 33.75 C 88.144531 33.75 87.421875 33.484375 86.648438 32.714844 C 86.074219 32.058594 85.8125 31.570312 85.816406 30.703125 C 85.816406 30.546875 85.816406 30.394531 85.816406 30.234375 C 85.816406 30.066406 85.820312 29.902344 85.820312 29.730469 C 85.820312 29.558594 85.820312 29.390625 85.824219 29.214844 C 85.824219 28.667969 85.828125 28.125 85.832031 27.578125 C 85.832031 27.210938 85.835938 26.839844 85.835938 26.472656 C 85.839844 25.566406 85.84375 24.660156 85.851562 23.753906 Z M 85.851562 23.753906 "/>
<path style=" stroke:none;fill-rule:nonzero;fill:rgb(1.960784%,1.960784%,1.960784%);fill-opacity:1;" d="M 197.890625 23.753906 C 198.707031 23.753906 199.523438 23.753906 200.363281 23.753906 C 200.472656 24.707031 200.53125 25.636719 200.523438 26.597656 C 200.523438 26.722656 200.523438 26.84375 200.523438 26.972656 C 200.523438 27.363281 200.519531 27.753906 200.519531 28.144531 C 200.519531 28.410156 200.515625 28.679688 200.515625 28.945312 C 200.515625 29.59375 200.511719 30.246094 200.507812 30.894531 C 200.605469 30.894531 200.703125 30.894531 200.800781 30.894531 C 200.800781 30.992188 200.800781 31.085938 200.800781 31.1875 C 201.03125 31.199219 201.261719 31.207031 201.492188 31.214844 C 201.621094 31.21875 201.75 31.222656 201.878906 31.230469 C 202.347656 31.175781 202.507812 31.089844 202.835938 30.75 C 202.929688 30.261719 202.929688 30.261719 202.921875 29.695312 C 202.921875 29.589844 202.925781 29.484375 202.925781 29.378906 C 202.933594 29.042969 202.9375 28.707031 202.9375 28.371094 C 202.945312 27.933594 202.949219 27.5 202.957031 27.0625 C 202.960938 26.957031 202.960938 26.847656 202.960938 26.738281 C 202.976562 25.738281 203.046875 24.75 203.128906 23.753906 C 203.945312 23.753906 204.761719 23.753906 205.601562 23.753906 C 205.613281 24.746094 205.621094 25.738281 205.625 26.734375 C 205.628906 27.070312 205.632812 27.40625 205.636719 27.746094 C 205.640625 28.230469 205.644531 28.71875 205.644531 29.203125 C 205.648438 29.355469 205.648438 29.503906 205.652344 29.65625 C 205.652344 30.726562 205.535156 31.691406 204.898438 32.578125 C 204.804688 32.667969 204.710938 32.757812 204.609375 32.851562 C 204.515625 32.945312 204.421875 33.039062 204.328125 33.132812 C 203.1875 33.964844 201.414062 33.828125 200.074219 33.664062 C 199.519531 33.460938 199.164062 33.21875 198.765625 32.789062 C 198.648438 32.671875 198.53125 32.554688 198.410156 32.433594 C 197.8125 31.457031 197.851562 30.460938 197.863281 29.347656 C 197.863281 29.1875 197.863281 29.027344 197.863281 28.859375 C 197.863281 28.351562 197.867188 27.84375 197.871094 27.332031 C 197.875 26.988281 197.875 26.640625 197.875 26.292969 C 197.878906 25.449219 197.882812 24.601562 197.890625 23.753906 Z M 197.890625 23.753906 "/>
<path style=" stroke:none;fill-rule:nonzero;fill:rgb(1.960784%,1.960784%,1.960784%);fill-opacity:1;" d="M 257.394531 23.738281 C 257.515625 23.738281 257.636719 23.738281 257.761719 23.738281 C 257.894531 23.738281 258.023438 23.742188 258.160156 23.742188 C 258.367188 23.742188 258.367188 23.742188 258.578125 23.746094 C 258.714844 23.746094 258.851562 23.746094 258.996094 23.746094 C 259.335938 23.75 259.679688 23.75 260.023438 23.753906 C 260.296875 24.375 260.539062 24.984375 260.730469 25.640625 C 260.78125 25.804688 260.832031 25.96875 260.882812 26.140625 C 260.960938 26.402344 260.960938 26.402344 261.042969 26.667969 C 261.148438 27.023438 261.257812 27.378906 261.367188 27.734375 C 261.398438 27.828125 261.425781 27.921875 261.457031 28.019531 C 261.652344 28.648438 261.859375 29.273438 262.074219 29.894531 C 262.125 30.050781 262.179688 30.207031 262.234375 30.367188 C 262.339844 30.675781 262.449219 30.988281 262.554688 31.296875 C 263.007812 32.621094 263.007812 32.621094 262.933594 33.371094 C 262.527344 33.386719 262.125 33.398438 261.722656 33.410156 C 261.609375 33.414062 261.496094 33.417969 261.375 33.421875 C 260.542969 33.4375 260.542969 33.4375 260.171875 33.140625 C 260.023438 32.789062 260.023438 32.789062 259.878906 31.769531 C 259.011719 31.816406 258.148438 31.863281 257.257812 31.914062 C 257.1875 32.128906 257.121094 32.339844 257.046875 32.5625 C 256.839844 33.207031 256.839844 33.207031 256.675781 33.371094 C 256.257812 33.382812 255.847656 33.386719 255.429688 33.382812 C 255.3125 33.378906 255.195312 33.378906 255.074219 33.378906 C 254.785156 33.378906 254.492188 33.375 254.203125 33.371094 C 254.054688 32.917969 254.058594 32.65625 254.214844 32.203125 C 254.25 32.089844 254.289062 31.976562 254.328125 31.859375 C 254.371094 31.738281 254.414062 31.617188 254.457031 31.492188 C 254.5 31.363281 254.542969 31.234375 254.589844 31.101562 C 254.726562 30.6875 254.871094 30.277344 255.011719 29.867188 C 255.148438 29.460938 255.285156 29.058594 255.421875 28.65625 C 255.511719 28.390625 255.601562 28.125 255.695312 27.859375 C 256.046875 26.820312 256.378906 25.78125 256.699219 24.734375 C 257 23.761719 257 23.761719 257.394531 23.738281 Z M 257.394531 23.738281 "/>
<path style=" stroke:none;fill-rule:nonzero;fill:rgb(1.960784%,1.960784%,1.960784%);fill-opacity:1;" d="M 129.789062 23.71875 C 129.902344 23.722656 130.015625 23.722656 130.136719 23.726562 C 130.257812 23.726562 130.382812 23.726562 130.511719 23.726562 C 130.703125 23.730469 130.703125 23.730469 130.902344 23.734375 C 131.097656 23.738281 131.097656 23.738281 131.296875 23.738281 C 131.621094 23.742188 131.945312 23.746094 132.265625 23.753906 C 132.652344 24.675781 132.980469 25.605469 133.265625 26.5625 C 133.453125 27.183594 133.644531 27.800781 133.839844 28.417969 C 133.875 28.53125 133.914062 28.648438 133.949219 28.765625 C 134.15625 29.417969 134.367188 30.070312 134.585938 30.71875 C 134.65625 30.925781 134.65625 30.925781 134.726562 31.136719 C 134.820312 31.410156 134.910156 31.679688 135.003906 31.949219 C 135.066406 32.132812 135.066406 32.132812 135.128906 32.320312 C 135.167969 32.429688 135.203125 32.535156 135.242188 32.648438 C 135.320312 32.933594 135.320312 32.933594 135.320312 33.371094 C 134.457031 33.371094 133.59375 33.371094 132.703125 33.371094 C 132.210938 32.222656 132.210938 32.222656 132.265625 31.625 C 132.132812 31.640625 132.132812 31.640625 131.996094 31.65625 C 131.15625 31.746094 130.34375 31.78125 129.5 31.769531 C 129.40625 32.296875 129.308594 32.828125 129.210938 33.371094 C 128.296875 33.371094 127.386719 33.371094 126.445312 33.371094 C 126.285156 32.726562 126.339844 32.539062 126.546875 31.925781 C 126.605469 31.75 126.660156 31.578125 126.71875 31.398438 C 126.785156 31.207031 126.847656 31.019531 126.914062 30.828125 C 126.976562 30.636719 127.042969 30.441406 127.105469 30.246094 C 127.242188 29.839844 127.378906 29.433594 127.515625 29.023438 C 127.695312 28.503906 127.867188 27.980469 128.042969 27.460938 C 128.175781 27.058594 128.308594 26.65625 128.445312 26.253906 C 128.507812 26.0625 128.574219 25.871094 128.636719 25.675781 C 128.726562 25.410156 128.816406 25.140625 128.910156 24.871094 C 128.960938 24.71875 129.011719 24.566406 129.066406 24.410156 C 129.230469 24 129.328125 23.773438 129.789062 23.71875 Z M 129.789062 23.71875 "/>
<path style=" stroke:none;fill-rule:nonzero;fill:rgb(1.960784%,1.960784%,1.960784%);fill-opacity:1;" d="M 149.996094 23.738281 C 150.113281 23.738281 150.226562 23.738281 150.347656 23.738281 C 150.53125 23.742188 150.53125 23.742188 150.722656 23.742188 C 150.855469 23.742188 150.984375 23.742188 151.117188 23.746094 C 151.25 23.746094 151.382812 23.746094 151.515625 23.746094 C 151.839844 23.75 152.167969 23.75 152.492188 23.753906 C 152.925781 24.808594 153.3125 25.871094 153.671875 26.953125 C 153.753906 27.195312 153.753906 27.195312 153.835938 27.441406 C 153.949219 27.78125 154.0625 28.117188 154.175781 28.457031 C 154.347656 28.972656 154.523438 29.492188 154.695312 30.007812 C 154.808594 30.339844 154.917969 30.667969 155.027344 30.996094 C 155.105469 31.230469 155.105469 31.230469 155.1875 31.464844 C 155.234375 31.609375 155.28125 31.753906 155.328125 31.902344 C 155.371094 32.027344 155.414062 32.152344 155.457031 32.285156 C 155.546875 32.644531 155.546875 32.644531 155.546875 33.371094 C 154.683594 33.371094 153.820312 33.371094 152.929688 33.371094 C 152.492188 32.207031 152.492188 32.207031 152.492188 31.625 C 151.578125 31.625 150.667969 31.625 149.726562 31.625 C 149.679688 31.960938 149.632812 32.296875 149.582031 32.644531 C 149.4375 33.003906 149.4375 33.003906 149.289062 33.371094 C 148.425781 33.371094 147.5625 33.371094 146.671875 33.371094 C 146.851562 32.242188 147.125 31.21875 147.519531 30.148438 C 147.878906 29.136719 148.226562 28.128906 148.519531 27.097656 C 149.460938 23.769531 149.460938 23.769531 149.996094 23.738281 Z M 149.996094 23.738281 "/>
<path style=" stroke:none;fill-rule:nonzero;fill:rgb(1.176471%,1.176471%,1.176471%);fill-opacity:1;" d="M 175.191406 23.753906 C 176.007812 23.753906 176.824219 23.753906 177.664062 23.753906 C 177.800781 26.136719 177.828125 28.507812 177.8125 30.894531 C 178.351562 31.09375 178.808594 31.222656 179.382812 31.214844 C 179.496094 31.210938 179.609375 31.210938 179.722656 31.210938 C 179.996094 31.214844 179.996094 31.214844 180.140625 31.039062 C 180.160156 30.8125 180.171875 30.582031 180.183594 30.355469 C 180.1875 30.207031 180.195312 30.0625 180.199219 29.914062 C 180.207031 29.753906 180.210938 29.59375 180.214844 29.433594 C 180.222656 29.269531 180.230469 29.109375 180.234375 28.941406 C 180.253906 28.425781 180.273438 27.90625 180.292969 27.386719 C 180.304688 27.039062 180.320312 26.6875 180.332031 26.335938 C 180.367188 25.476562 180.398438 24.613281 180.429688 23.753906 C 181.246094 23.753906 182.0625 23.753906 182.902344 23.753906 C 182.914062 24.746094 182.921875 25.738281 182.925781 26.734375 C 182.929688 27.070312 182.933594 27.40625 182.9375 27.746094 C 182.941406 28.230469 182.945312 28.71875 182.945312 29.203125 C 182.949219 29.355469 182.949219 29.503906 182.953125 29.65625 C 182.953125 30.726562 182.835938 31.691406 182.199219 32.578125 C 182.105469 32.667969 182.011719 32.757812 181.910156 32.851562 C 181.816406 32.945312 181.722656 33.039062 181.628906 33.132812 C 180.800781 33.738281 179.902344 33.722656 178.921875 33.726562 C 178.789062 33.730469 178.65625 33.738281 178.519531 33.742188 C 177.566406 33.75 176.941406 33.554688 176.210938 32.933594 C 175.949219 32.640625 175.949219 32.640625 175.792969 32.359375 C 175.738281 32.269531 175.683594 32.179688 175.628906 32.082031 C 175.179688 31.121094 175.152344 30.292969 175.164062 29.246094 C 175.164062 29.089844 175.164062 28.933594 175.164062 28.769531 C 175.164062 28.269531 175.167969 27.769531 175.171875 27.269531 C 175.175781 26.929688 175.175781 26.589844 175.175781 26.25 C 175.179688 25.417969 175.183594 24.585938 175.191406 23.753906 Z M 175.191406 23.753906 "/>
<path style=" stroke:none;fill-rule:nonzero;fill:rgb(0.392157%,0.392157%,0.392157%);fill-opacity:1;" d="M 276.171875 23.753906 C 278.285156 23.753906 280.398438 23.753906 282.578125 23.753906 C 282.578125 24.378906 282.578125 25.003906 282.578125 25.648438 C 282.429688 25.792969 282.429688 25.792969 282.066406 25.808594 C 281.910156 25.808594 281.75 25.808594 281.589844 25.808594 C 281.417969 25.808594 281.25 25.808594 281.074219 25.808594 C 280.894531 25.804688 280.714844 25.804688 280.53125 25.804688 C 280.261719 25.800781 280.261719 25.800781 279.984375 25.800781 C 279.539062 25.800781 279.09375 25.796875 278.648438 25.792969 C 278.648438 26.371094 278.648438 26.949219 278.648438 27.542969 C 279.800781 27.542969 280.953125 27.542969 282.140625 27.542969 C 282.140625 28.214844 282.140625 28.890625 282.140625 29.582031 C 280.988281 29.582031 279.835938 29.582031 278.648438 29.582031 C 278.648438 30.160156 278.648438 30.738281 278.648438 31.332031 C 279.992188 31.332031 281.335938 31.332031 282.722656 31.332031 C 282.722656 31.957031 282.722656 32.582031 282.722656 33.226562 C 282.5 33.449219 282.296875 33.390625 281.988281 33.390625 C 281.863281 33.390625 281.738281 33.390625 281.609375 33.390625 C 281.472656 33.390625 281.339844 33.390625 281.199219 33.390625 C 280.992188 33.390625 280.992188 33.390625 280.777344 33.390625 C 280.484375 33.390625 280.191406 33.390625 279.898438 33.390625 C 279.449219 33.390625 279 33.390625 278.550781 33.390625 C 278.265625 33.390625 277.980469 33.390625 277.695312 33.390625 C 277.492188 33.390625 277.492188 33.390625 277.285156 33.390625 C 277.160156 33.390625 277.035156 33.390625 276.90625 33.390625 C 276.796875 33.390625 276.6875 33.390625 276.574219 33.390625 C 276.320312 33.371094 276.320312 33.371094 276.171875 33.226562 C 276.160156 32.929688 276.15625 32.636719 276.15625 32.339844 C 276.15625 32.152344 276.15625 31.960938 276.15625 31.765625 C 276.15625 31.558594 276.160156 31.347656 276.160156 31.140625 C 276.160156 30.925781 276.160156 30.714844 276.160156 30.503906 C 276.160156 29.945312 276.164062 29.382812 276.164062 28.824219 C 276.164062 28.15625 276.167969 27.484375 276.167969 26.8125 C 276.167969 25.792969 276.171875 24.773438 276.171875 23.753906 Z M 276.171875 23.753906 "/>
<path style=" stroke:none;fill-rule:nonzero;fill:rgb(1.568627%,1.568627%,1.568627%);fill-opacity:1;" d="M 145.109375 23.597656 C 145.304688 23.601562 145.304688 23.601562 145.507812 23.609375 C 145.203125 24.878906 144.5625 25.964844 143.917969 27.085938 C 142.9375 28.789062 142.320312 30.140625 142.226562 32.113281 C 142.214844 32.296875 142.214844 32.296875 142.207031 32.480469 C 142.191406 32.777344 142.175781 33.074219 142.160156 33.371094 C 141.777344 33.375 141.390625 33.378906 141.007812 33.382812 C 140.894531 33.382812 140.785156 33.382812 140.671875 33.382812 C 140.394531 33.386719 140.113281 33.378906 139.832031 33.371094 C 139.6875 33.226562 139.6875 33.226562 139.683594 32.96875 C 139.691406 32.855469 139.695312 32.742188 139.703125 32.628906 C 139.753906 30.417969 139.148438 28.957031 138.035156 27.074219 C 137.652344 26.421875 137.308594 25.753906 136.960938 25.082031 C 136.898438 24.964844 136.835938 24.847656 136.769531 24.726562 C 136.339844 23.917969 136.339844 23.917969 136.339844 23.753906 C 137.253906 23.753906 138.164062 23.753906 139.105469 23.753906 C 139.316406 24.152344 139.527344 24.546875 139.742188 24.957031 C 139.808594 25.078125 139.875 25.203125 139.941406 25.332031 C 140.019531 25.480469 140.019531 25.480469 140.101562 25.632812 C 140.179688 25.785156 140.179688 25.785156 140.261719 25.9375 C 140.3125 26.035156 140.363281 26.132812 140.414062 26.230469 C 140.46875 26.332031 140.523438 26.429688 140.582031 26.53125 C 140.707031 26.8125 140.707031 26.8125 140.707031 27.25 C 141.285156 26.792969 141.488281 26.246094 141.769531 25.585938 C 142.511719 23.871094 142.511719 23.871094 143.191406 23.53125 C 143.839844 23.484375 144.457031 23.625 145.109375 23.597656 Z M 145.109375 23.597656 "/>
<path style=" stroke:none;fill-rule:nonzero;fill:rgb(0.392157%,0.392157%,0.392157%);fill-opacity:1;" d="M 285.921875 23.753906 C 288.324219 23.753906 290.726562 23.753906 293.199219 23.753906 C 293.199219 24.425781 293.199219 25.101562 293.199219 25.792969 C 292.429688 25.792969 291.660156 25.792969 290.871094 25.792969 C 290.871094 26.019531 290.871094 26.242188 290.871094 26.472656 C 290.875 27.304688 290.875 28.132812 290.878906 28.960938 C 290.878906 29.320312 290.878906 29.679688 290.882812 30.039062 C 290.882812 30.554688 290.882812 31.070312 290.882812 31.585938 C 290.886719 31.746094 290.886719 31.910156 290.886719 32.078125 C 290.886719 32.226562 290.886719 32.375 290.886719 32.527344 C 290.886719 32.660156 290.886719 32.789062 290.886719 32.925781 C 290.871094 33.226562 290.871094 33.226562 290.726562 33.371094 C 289.957031 33.371094 289.1875 33.371094 288.398438 33.371094 C 288.398438 30.871094 288.398438 28.371094 288.398438 25.792969 C 287.628906 25.792969 286.859375 25.792969 286.070312 25.792969 C 286.019531 25.746094 285.972656 25.699219 285.921875 25.648438 C 285.921875 25.023438 285.921875 24.398438 285.921875 23.753906 Z M 285.921875 23.753906 "/>
<path style=" stroke:none;fill-rule:nonzero;fill:rgb(0%,0%,0%);fill-opacity:1;" d="M 266.28125 23.753906 C 267.046875 23.753906 267.816406 23.753906 268.609375 23.753906 C 268.609375 26.253906 268.609375 28.753906 268.609375 31.332031 C 270 31.332031 271.390625 31.332031 272.828125 31.332031 C 272.828125 31.957031 272.828125 32.582031 272.828125 33.226562 C 272.679688 33.371094 272.679688 33.371094 272.421875 33.390625 C 272.308594 33.390625 272.195312 33.390625 272.078125 33.386719 C 271.949219 33.386719 271.816406 33.386719 271.683594 33.386719 C 271.546875 33.386719 271.410156 33.386719 271.265625 33.386719 C 271.140625 33.386719 271.015625 33.386719 270.886719 33.386719 C 270.414062 33.386719 269.941406 33.382812 269.472656 33.382812 C 268.417969 33.378906 267.363281 33.375 266.28125 33.371094 C 266.28125 30.199219 266.28125 27.023438 266.28125 23.753906 Z M 266.28125 23.753906 "/>
<path style=" stroke:none;fill-rule:nonzero;fill:rgb(0.392157%,0.392157%,0.392157%);fill-opacity:1;" d="M 109.277344 23.753906 C 110.09375 23.753906 110.910156 23.753906 111.75 23.753906 C 111.75 26.929688 111.75 30.101562 111.75 33.371094 C 110.933594 33.371094 110.117188 33.371094 109.277344 33.371094 C 109.277344 30.199219 109.277344 27.023438 109.277344 23.753906 Z M 109.277344 23.753906 "/>
<path style=" stroke:none;fill-rule:nonzero;fill:rgb(98.823529%,98.823529%,98.823529%);fill-opacity:1;" d="M 99.820312 25.792969 C 100.046875 25.785156 100.277344 25.78125 100.507812 25.773438 C 100.699219 25.769531 100.699219 25.769531 100.894531 25.765625 C 101.722656 25.828125 102.265625 26.375 102.875 26.894531 C 103.308594 27.644531 103.28125 28.300781 103.164062 29.144531 C 102.914062 30.078125 102.507812 30.652344 101.710938 31.1875 C 101.171875 31.421875 100.542969 31.351562 99.964844 31.332031 C 99.820312 31.1875 99.820312 31.1875 99.800781 30.675781 C 99.800781 30.445312 99.800781 30.21875 99.804688 29.992188 C 99.804688 29.871094 99.804688 29.753906 99.804688 29.628906 C 99.804688 29.246094 99.808594 28.863281 99.808594 28.480469 C 99.808594 28.222656 99.8125 27.960938 99.8125 27.703125 C 99.8125 27.066406 99.816406 26.429688 99.820312 25.792969 Z M 99.820312 25.792969 "/>
<path style=" stroke:none;fill-rule:nonzero;fill:rgb(98.823529%,98.823529%,98.823529%);fill-opacity:1;" d="M 118.296875 25.792969 C 119.78125 25.792969 120.25 25.941406 121.273438 26.832031 C 121.707031 27.636719 121.730469 28.59375 121.554688 29.484375 C 121.253906 30.285156 120.894531 30.738281 120.152344 31.167969 C 119.609375 31.332031 119.609375 31.332031 118.296875 31.332031 C 118.296875 29.503906 118.296875 27.675781 118.296875 25.792969 Z M 118.296875 25.792969 "/>
<path style=" stroke:none;fill-rule:nonzero;fill:rgb(98.823529%,98.823529%,98.823529%);fill-opacity:1;" d="M 189.304688 25.792969 C 189.585938 25.789062 189.871094 25.789062 190.160156 25.785156 C 190.320312 25.78125 190.476562 25.78125 190.640625 25.78125 C 191.050781 25.792969 191.050781 25.792969 191.34375 25.941406 C 191.34375 26.035156 191.34375 26.132812 191.34375 26.230469 C 191.4375 26.230469 191.535156 26.230469 191.632812 26.230469 C 191.644531 26.464844 191.652344 26.699219 191.660156 26.933594 C 191.667969 27.128906 191.667969 27.128906 191.675781 27.328125 C 191.632812 27.6875 191.632812 27.6875 191.476562 27.953125 C 190.867188 28.332031 189.988281 28.144531 189.304688 28.125 C 189.304688 27.355469 189.304688 26.585938 189.304688 25.792969 Z M 189.304688 25.792969 "/>
<path style=" stroke:none;fill-rule:nonzero;fill:rgb(97.647059%,97.647059%,97.647059%);fill-opacity:1;" d="M 77.410156 29.582031 C 77.765625 29.570312 78.121094 29.5625 78.472656 29.554688 C 78.625 29.550781 78.625 29.550781 78.777344 29.542969 C 79.515625 29.535156 79.515625 29.535156 79.882812 29.769531 C 80.03125 30.019531 80.03125 30.019531 80.019531 30.539062 C 79.882812 31.039062 79.882812 31.039062 79.644531 31.214844 C 79.191406 31.367188 78.796875 31.359375 78.320312 31.351562 C 78.148438 31.347656 77.980469 31.34375 77.804688 31.34375 C 77.609375 31.335938 77.609375 31.335938 77.410156 31.332031 C 77.410156 30.753906 77.410156 30.175781 77.410156 29.582031 Z M 77.410156 29.582031 "/>
<path style=" stroke:none;fill-rule:nonzero;fill:rgb(98.431373%,98.431373%,98.431373%);fill-opacity:1;" d="M 166.75 29.582031 C 167.105469 29.570312 167.460938 29.5625 167.816406 29.554688 C 167.964844 29.550781 167.964844 29.550781 168.121094 29.542969 C 168.859375 29.535156 168.859375 29.535156 169.222656 29.769531 C 169.480469 30.207031 169.34375 30.570312 169.226562 31.039062 C 168.699219 31.390625 168.449219 31.367188 167.824219 31.359375 C 167.65625 31.359375 167.484375 31.355469 167.308594 31.355469 C 166.898438 31.332031 166.898438 31.332031 166.75 31.1875 C 166.742188 30.914062 166.738281 30.644531 166.742188 30.375 C 166.746094 30.226562 166.746094 30.082031 166.746094 29.929688 C 166.75 29.8125 166.75 29.699219 166.75 29.582031 Z M 166.75 29.582031 "/>
<path style=" stroke:none;fill-rule:nonzero;fill:rgb(98.823529%,98.823529%,98.823529%);fill-opacity:1;" d="M 166.75 25.792969 C 167.089844 25.789062 167.425781 25.789062 167.761719 25.785156 C 167.949219 25.78125 168.136719 25.78125 168.328125 25.78125 C 168.789062 25.792969 168.789062 25.792969 168.933594 25.941406 C 168.960938 26.230469 168.960938 26.230469 168.960938 26.585938 C 168.964844 26.703125 168.964844 26.820312 168.96875 26.941406 C 168.933594 27.25 168.933594 27.25 168.644531 27.542969 C 168.203125 27.570312 168.203125 27.570312 167.679688 27.5625 C 167.507812 27.558594 167.332031 27.554688 167.15625 27.554688 C 167.023438 27.550781 166.890625 27.546875 166.75 27.542969 C 166.75 26.964844 166.75 26.386719 166.75 25.792969 Z M 166.75 25.792969 "/>
<path style=" stroke:none;fill-rule:nonzero;fill:rgb(98.823529%,98.823529%,98.823529%);fill-opacity:1;" d="M 77.410156 25.792969 C 77.71875 25.785156 78.027344 25.78125 78.335938 25.777344 C 78.511719 25.773438 78.683594 25.769531 78.859375 25.765625 C 79.300781 25.792969 79.300781 25.792969 79.59375 26.085938 C 79.636719 26.359375 79.636719 26.359375 79.636719 26.667969 C 79.640625 26.769531 79.644531 26.871094 79.644531 26.976562 C 79.621094 27.113281 79.621094 27.113281 79.59375 27.25 C 78.902344 27.710938 78.230469 27.558594 77.410156 27.542969 C 77.410156 26.964844 77.410156 26.386719 77.410156 25.792969 Z M 77.410156 25.792969 "/>
<path style=" stroke:none;fill-rule:nonzero;fill:rgb(94.509804%,94.509804%,94.509804%);fill-opacity:1;" d="M 151.039062 27.25 C 151.507812 27.59375 151.585938 28.003906 151.714844 28.542969 C 151.765625 28.855469 151.765625 28.855469 151.765625 29.582031 C 151.285156 29.582031 150.804688 29.582031 150.308594 29.582031 C 150.375 29.277344 150.441406 28.96875 150.507812 28.664062 C 150.546875 28.492188 150.582031 28.320312 150.621094 28.144531 C 150.746094 27.6875 150.746094 27.6875 151.039062 27.25 Z M 151.039062 27.25 "/>
<path style=" stroke:none;fill-rule:nonzero;fill:rgb(94.901961%,94.901961%,94.901961%);fill-opacity:1;" d="M 258.421875 27.105469 C 258.941406 27.5 258.984375 27.972656 259.105469 28.589844 C 259.160156 28.867188 259.160156 28.867188 259.214844 29.152344 C 259.242188 29.292969 259.269531 29.4375 259.296875 29.582031 C 258.816406 29.582031 258.335938 29.582031 257.839844 29.582031 C 257.882812 29.304688 257.925781 29.03125 257.96875 28.753906 C 257.992188 28.601562 258.015625 28.445312 258.039062 28.289062 C 258.125 27.863281 258.246094 27.5 258.421875 27.105469 Z M 258.421875 27.105469 "/>
<path style=" stroke:none;fill-rule:nonzero;fill:rgb(95.686275%,95.686275%,95.686275%);fill-opacity:1;" d="M 130.664062 27.105469 C 130.761719 27.105469 130.859375 27.105469 130.957031 27.105469 C 131.054688 27.4375 131.152344 27.765625 131.25 28.097656 C 131.300781 28.28125 131.355469 28.46875 131.410156 28.65625 C 131.539062 29.144531 131.539062 29.144531 131.539062 29.582031 C 131.058594 29.582031 130.578125 29.582031 130.085938 29.582031 C 130.125 29.304688 130.167969 29.03125 130.210938 28.753906 C 130.234375 28.601562 130.257812 28.445312 130.28125 28.289062 C 130.367188 27.863281 130.492188 27.5 130.664062 27.105469 Z M 130.664062 27.105469 "/>
</g>
</svg>
