<svg id="Layer_1" data-name="Layer 1" xmlns="http://www.w3.org/2000/svg" viewBox="0 0 512 512"><title>Global Warming</title><path d="M246.35,290.233,221.6,277.861a.946.946,0,0,1-.525-.85A22.306,22.306,0,0,0,198.8,254.73h-2.368a.957.957,0,0,1-.672-.279l-2.592-2.592a22.136,22.136,0,0,0-15.755-6.526h-16.2a22.161,22.161,0,0,0-19.929,12.317l-4.455,8.91a.959.959,0,0,1-.424.424h0l-8.908,4.455a22.16,22.16,0,0,0-12.318,19.929v8.1a22.2,22.2,0,0,0,3.743,12.359l15.133,22.7a22.34,22.34,0,0,0,8.573,7.566l9.616,4.807a.944.944,0,0,1,.523.848v37.064a22.4,22.4,0,0,0,2.352,9.965l7.327,14.655a22.278,22.278,0,0,0,4.175,5.792l11.54,11.54a22.253,22.253,0,0,0,25.721,4.175l6.227-3.114a22.139,22.139,0,0,0,11.882-15.558L229.58,374.3a.944.944,0,0,1,.26-.485l14.368-14.368a22.405,22.405,0,0,0,5.383-8.71l7.933-23.8a22.246,22.246,0,0,0,1.143-7.046v-9.73A22.16,22.16,0,0,0,246.35,290.233Zm-9.016,29.659a.948.948,0,0,1-.049.3l-7.932,23.8a.948.948,0,0,1-.23.373l-14.368,14.368a22.213,22.213,0,0,0-6.094,11.386l-7.593,37.965a.944.944,0,0,1-.505.663l-6.225,3.113a.95.95,0,0,1-1.1-.178l-11.536-11.535a.978.978,0,0,1-.182-.251L174.2,385.241a.968.968,0,0,1-.1-.427V347.75a22.158,22.158,0,0,0-12.318-19.929l-9.611-4.806a.959.959,0,0,1-.368-.323l-15.132-22.7a.936.936,0,0,1-.158-.524v-8.1a.942.942,0,0,1,.525-.848l8.909-4.455a22.429,22.429,0,0,0,9.965-9.965l4.455-8.91a.943.943,0,0,1,.848-.524h16.2a.957.957,0,0,1,.672.279l2.592,2.592a22.136,22.136,0,0,0,15.755,6.526H198.8a.949.949,0,0,1,.948.948,22.163,22.163,0,0,0,12.318,19.93l24.746,12.373a.943.943,0,0,1,.524.848Z" id="id_101" style="fill: rgb(255, 255, 255);"></path><path d="M469.329,321.092V117.333A53.334,53.334,0,0,0,365.881,99.081,208.031,208.031,0,0,0,32.709,188q-.044.127-.084.254A207.328,207.328,0,0,0,21.329,256c0,114.692,93.308,208,208,208a207.763,207.763,0,0,0,128.2-44.221,74.662,74.662,0,1,0,111.8-98.687Zm-106.787.129-9.063-18.125a8.056,8.056,0,0,1-.843-3.607v-2.741a29.289,29.289,0,0,0-16.3-26.358,29.436,29.436,0,0,0-26.319,0l-6.468,3.228a8.055,8.055,0,0,1-3.606.843h-.8a8.108,8.108,0,0,1-7.716-5.56l-4.154-12.462a8.131,8.131,0,0,1-.419-2.553V238.805a8.12,8.12,0,0,1,3.624-6.762l17.107-11.405a8.518,8.518,0,0,1,2.538-1.127l29.115-7.273a8.2,8.2,0,0,1,4.55.163l18.875,6.3V321.094C362.622,321.135,362.583,321.179,362.542,321.22ZM131.917,96.748l21.82,15.154a6.569,6.569,0,0,1,2.12,2.454l2.672,5.334a27.718,27.718,0,0,0,24.935,15.421H202.6a6.556,6.556,0,0,1,6.548,6.548V142a6.5,6.5,0,0,1-3.623,5.852l-45.9,22.953a27.945,27.945,0,0,0-3,1.74l-23.5,15.67a28.051,28.051,0,0,0-9.474,10.733l-3.492,7a27.822,27.822,0,0,0,0,24.926,6.552,6.552,0,0,1-1.235,7.57l-.514.514a6.524,6.524,0,0,1-7.992.979l-30-17.994a6.544,6.544,0,0,1-2.84-3.55l-7.386-22.148a10.666,10.666,0,0,0-10.119-7.292,13.107,13.107,0,0,1-4.687-.766A186.746,186.746,0,0,1,131.917,96.748ZM42.662,256a186.655,186.655,0,0,1,6.108-47.492,31.745,31.745,0,0,0,3.326.935l5.232,15.69a27.882,27.882,0,0,0,12.105,15.1l29.994,17.989a27.813,27.813,0,0,0,34.064-4.186l.512-.513a27.856,27.856,0,0,0,5.232-32.184,6.491,6.491,0,0,1,0-5.864l3.484-6.986a6.638,6.638,0,0,1,2.238-2.534l23.49-15.663a6.555,6.555,0,0,1,.707-.407l45.9-22.953A27.716,27.716,0,0,0,230.477,142v-.339A27.913,27.913,0,0,0,202.6,113.778H183.463a6.5,6.5,0,0,1-5.854-3.629l-2.675-5.341a27.965,27.965,0,0,0-9.028-10.427l-12.73-8.841a186.444,186.444,0,0,1,209.486,39.829V196.21l-12.153-4.055a29.536,29.536,0,0,0-16.437-.615l-29.183,7.291a29.786,29.786,0,0,0-9.124,4.049L278.64,214.3a29.411,29.411,0,0,0-13.12,24.509v15.083a29.289,29.289,0,0,0,1.519,9.315l4.145,12.434A29.406,29.406,0,0,0,299.142,295.8h.8a29.44,29.44,0,0,0,13.169-3.106l6.441-3.215a8.123,8.123,0,0,1,11.751,7.271v2.741a29.459,29.459,0,0,0,3.109,13.177l14.229,28.458a74.646,74.646,0,0,0-1.943,60.022,186.443,186.443,0,0,1-117.37,41.523C126.4,442.667,42.662,358.928,42.662,256ZM416,426.667a53.329,53.329,0,0,1-35.546-93.082A10.668,10.668,0,0,0,384,325.643V117.333a32,32,0,0,1,64,0V325.643a10.667,10.667,0,0,0,3.553,7.948A53.325,53.325,0,0,1,416,426.667Z" id="id_102" style="fill: rgb(255, 255, 255);"></path><path d="M426.666,343.168V117.333a10.667,10.667,0,0,0-21.333,0V343.168a32,32,0,1,0,21.333,0ZM416,384a10.667,10.667,0,1,1,10.667-10.667A10.679,10.679,0,0,1,416,384Z" id="id_103" style="fill: rgb(255, 255, 255);"></path></svg>